# xmcd
#
# Track frame offsets:
#	150
#	13413
#	26042
#	39538
#	52298
#	65483
#	77640
#	85265
#	97205
#	106841
#
# Disc length: 1501 seconds
# Revision: 0
# Processed by: cddbd v1.5.2PL0 Copyright (c) Steve Scherf et al.
# Submitted via: dBpowerAMP V12.0
#
DISCID=8705db0a
DTITLE=Guy Sealy - Guy Sealy
DYEAR=2000
DGENRE=Country
TTITLE0=Don't Ever Try To Break My Heart Again
TTITLE1=I Put Down The Bottle
TTITLE2=Old Mexico
TTITLE3=1939
TTITLE4=Prisoner Of Your Love
TTITLE5=Pieces Of A Puzzle
TTITLE6=Is It The Last Time Like The Last Time Before
TTITLE7=Just Another Mountain
TTITLE8=I Loved Everything About You But Him
TTITLE9=If I Was Half The Man My Daddy Was
EXTD=
EXTT0=
EXTT1=
EXTT2=
EXTT3=
EXTT4=
EXTT5=
EXTT6=
EXTT7=
EXTT8=
EXTT9=
PLAYORDER=
